<svg version="1.1" id="Layer_1" xmlns="http://www.w3.org/2000/svg" xmlns:xlink="http://www.w3.org/1999/xlink" x="0px" y="0px"
	 width="100%" viewBox="0 0 500 500" enable-background="new 0 0 500 500" xml:space="preserve">
<path fill="#FFFFFF00" opacity="1.000000" stroke="none" 
	d="
M337.000000,501.000000 
	C224.666687,501.000000 112.833389,501.000000 1.000060,501.000000 
	C1.000040,334.333405 1.000040,167.666794 1.000020,1.000149 
	C167.666565,1.000100 334.333130,1.000100 500.999756,1.000050 
	C500.999847,167.666519 500.999847,334.333038 500.999939,500.999786 
	C446.500000,501.000000 392.000000,501.000000 337.000000,501.000000 
M322.518890,221.173859 
	C322.608734,232.331207 322.628632,243.489700 322.811920,254.645523 
	C322.943695,262.664429 328.995087,266.966095 336.742004,264.633881 
	C339.123962,263.916779 341.426819,262.928650 343.747467,262.017670 
	C352.991302,258.389008 357.598022,251.447205 357.846252,241.667770 
	C358.023621,234.678009 357.851959,227.678696 357.799774,220.683914 
	C357.578644,191.044083 357.312469,161.404526 357.150055,131.764389 
	C357.127197,127.594528 355.236115,124.985245 351.728577,123.001442 
	C323.125397,106.823959 294.531647,90.629166 266.004333,74.318504 
	C258.752380,70.172165 251.341782,69.935860 243.978806,73.159500 
	C239.292999,75.211037 234.874420,78.044983 230.687393,81.022263 
	C224.821411,85.193398 225.289230,92.571449 231.628571,96.200546 
	C260.333374,112.633202 289.050598,129.046768 317.933777,145.161774 
	C321.432892,147.114075 322.428192,149.044327 322.412109,152.775269 
	C322.315125,175.259201 322.455566,197.744125 322.518890,221.173859 
M140.185349,134.701706 
	C130.004044,140.639023 119.837471,146.601837 109.635567,152.503571 
	C104.034660,155.743637 99.581169,160.353638 98.585487,166.611328 
	C97.478439,173.568985 97.344002,180.847916 98.010231,187.870865 
	C98.590805,193.990875 105.224152,196.800018 110.623276,193.659729 
	C139.795029,176.692673 168.908142,159.623596 197.928024,142.398590 
	C200.356918,140.956909 201.891785,140.904099 204.143890,142.272980 
	C210.249619,145.984192 216.478210,149.493286 222.658478,153.081848 
	C246.087875,166.686035 269.506165,180.309433 292.954498,193.880859 
	C299.149841,197.466583 306.649384,195.967255 308.560303,190.025101 
	C312.452423,177.922394 314.168243,165.139313 298.509369,156.415894 
	C287.777252,150.437134 277.221008,144.142197 266.595398,137.972687 
	C247.358322,126.803108 228.086411,115.692505 208.921036,104.401131 
	C203.318207,101.100197 198.445312,100.364899 192.371826,104.094925 
	C175.399643,114.518356 158.020615,124.279335 140.185349,134.701706 
M128.010330,340.251648 
	C128.007675,334.585175 128.021301,328.918610 127.999588,323.252197 
	C127.901253,297.587494 128.253159,271.907257 127.388832,246.268127 
	C127.150497,239.198105 129.376877,236.259232 135.021408,233.082535 
	C163.274460,217.182022 191.280151,200.841629 219.354797,184.624710 
	C225.611450,181.010651 227.785645,173.929794 223.332809,169.187912 
	C219.420090,165.021149 214.638580,161.363403 209.615479,158.629929 
	C204.277252,155.724960 198.250641,156.258865 192.849182,159.370850 
	C161.472519,177.448059 130.153534,195.625549 98.756584,213.667404 
	C93.272408,216.818817 91.001328,221.015869 91.104828,227.499252 
	C91.615517,259.489197 91.737358,291.485321 91.991867,323.479309 
	C92.061050,332.175995 95.985245,338.818390 103.044212,343.601776 
	C106.341888,345.836365 110.013344,347.510925 113.405716,349.616058 
	C120.519020,354.030182 129.241180,349.461975 128.010330,340.251648 
M284.353607,400.117188 
	C288.674652,402.594330 292.937256,405.181641 297.334991,407.514160 
	C300.919525,409.415344 304.498505,409.620483 308.143707,407.157654 
	C311.574005,404.840027 315.289459,402.944885 318.876495,400.858734 
	C342.695038,387.006378 366.456940,373.055237 390.356750,359.344574 
	C400.759399,353.376831 406.124695,344.917419 405.273407,332.777710 
	C405.133820,330.787140 405.206818,328.781952 405.173157,326.783661 
	C404.991791,316.014160 398.851257,312.586273 389.469849,318.032959 
	C364.167969,332.722900 338.872955,347.424652 313.570435,362.113525 
	C309.449707,364.505737 305.294159,368.728638 301.174255,368.704895 
	C296.975403,368.680756 292.783936,364.490082 288.618164,362.073822 
	C262.314209,346.816895 236.026581,331.531738 209.713455,316.290619 
	C203.562180,312.727661 197.053528,313.613556 194.690475,319.177948 
	C190.132889,329.909943 188.809280,345.170959 203.098740,353.151642 
	C230.196899,368.285980 256.841492,384.232483 284.353607,400.117188 
M373.782990,154.741898 
	C373.543671,156.037338 373.096741,157.332550 373.095306,158.628250 
	C373.057251,193.262894 373.065002,227.897598 373.065002,262.881714 
	C363.282562,268.463837 353.185455,274.233612 343.080658,279.989838 
	C322.272736,291.843140 301.439514,303.652222 280.664154,315.562195 
	C274.903687,318.864563 273.171722,324.720856 276.092865,329.960541 
	C282.423126,341.315277 298.287262,345.919830 309.497467,339.561737 
	C329.289490,328.336273 349.047272,317.050476 368.813385,305.779388 
	C379.775970,299.528259 390.747345,293.291992 401.671692,286.974579 
	C405.807526,284.582855 409.132294,281.841248 409.105072,276.173065 
	C408.945648,243.009323 409.108826,209.843933 408.913177,176.680588 
	C408.892517,173.175949 407.687042,169.488815 406.265839,166.219009 
	C402.650879,157.901825 394.528809,154.808258 387.264832,150.842255 
	C381.439636,147.661804 378.364319,148.475220 373.782990,154.741898 
M165.237747,387.227753 
	C187.941818,400.041351 210.609406,412.920288 233.368317,425.635712 
	C242.224411,430.583649 251.166962,430.399231 259.872131,424.988617 
	C262.558502,423.318878 265.250488,421.656616 267.901611,419.932037 
	C275.059113,415.276245 275.077515,407.984528 267.600647,403.732788 
	C238.689896,387.292511 209.712891,370.967285 180.644333,354.808289 
	C177.863815,353.262604 176.979233,351.778290 176.987747,348.739044 
	C177.063293,321.746918 176.986160,294.754303 176.931381,267.761902 
	C176.916504,260.431030 177.003448,253.093231 176.715744,245.771515 
	C176.448502,238.970795 171.350555,234.036194 165.439560,235.451004 
	C160.188812,236.707794 154.846970,238.672089 150.307251,241.533096 
	C144.766052,245.025208 141.607056,250.541672 141.835083,257.558228 
	C142.008194,262.884705 141.890686,268.220734 141.896820,273.552490 
	C141.931702,303.877441 142.017776,334.202484 141.956696,364.527252 
	C141.943527,371.061523 143.657715,376.062500 150.209488,378.951385 
	C155.197861,381.150970 159.785614,384.259186 165.237747,387.227753 
z"/>
<path fill="#934B88" opacity="1.000000" stroke="none" 
	d="
M322.517700,220.701294 
	C322.455566,197.744125 322.315125,175.259201 322.412109,152.775269 
	C322.428192,149.044327 321.432892,147.114075 317.933777,145.161774 
	C289.050598,129.046768 260.333374,112.633202 231.628571,96.200546 
	C225.289230,92.571449 224.821411,85.193398 230.687393,81.022263 
	C234.874420,78.044983 239.292999,75.211037 243.978806,73.159500 
	C251.341782,69.935860 258.752380,70.172165 266.004333,74.318504 
	C294.531647,90.629166 323.125397,106.823959 351.728577,123.001442 
	C355.236115,124.985245 357.127197,127.594528 357.150055,131.764389 
	C357.312469,161.404526 357.578644,191.044083 357.799774,220.683914 
	C357.851959,227.678696 358.023621,234.678009 357.846252,241.667770 
	C357.598022,251.447205 352.991302,258.389008 343.747467,262.017670 
	C341.426819,262.928650 339.123962,263.916779 336.742004,264.633881 
	C328.995087,266.966095 322.943695,262.664429 322.811920,254.645523 
	C322.628632,243.489700 322.608734,232.331207 322.517700,220.701294 
z"/>
<path fill="#934A88" opacity="1.000000" stroke="none" 
	d="
M140.493759,134.501740 
	C158.020615,124.279335 175.399643,114.518356 192.371826,104.094925 
	C198.445312,100.364899 203.318207,101.100197 208.921036,104.401131 
	C228.086411,115.692505 247.358322,126.803108 266.595398,137.972687 
	C277.221008,144.142197 287.777252,150.437134 298.509369,156.415894 
	C314.168243,165.139313 312.452423,177.922394 308.560303,190.025101 
	C306.649384,195.967255 299.149841,197.466583 292.954498,193.880859 
	C269.506165,180.309433 246.087875,166.686035 222.658478,153.081848 
	C216.478210,149.493286 210.249619,145.984192 204.143890,142.272980 
	C201.891785,140.904099 200.356918,140.956909 197.928024,142.398590 
	C168.908142,159.623596 139.795029,176.692673 110.623276,193.659729 
	C105.224152,196.800018 98.590805,193.990875 98.010231,187.870865 
	C97.344002,180.847916 97.478439,173.568985 98.585487,166.611328 
	C99.581169,160.353638 104.034660,155.743637 109.635567,152.503571 
	C119.837471,146.601837 130.004044,140.639023 140.493759,134.501740 
z"/>
<path fill="#934A88" opacity="1.000000" stroke="none" 
	d="
M128.011124,340.713348 
	C129.241180,349.461975 120.519020,354.030182 113.405716,349.616058 
	C110.013344,347.510925 106.341888,345.836365 103.044212,343.601776 
	C95.985245,338.818390 92.061050,332.175995 91.991867,323.479309 
	C91.737358,291.485321 91.615517,259.489197 91.104828,227.499252 
	C91.001328,221.015869 93.272408,216.818817 98.756584,213.667404 
	C130.153534,195.625549 161.472519,177.448059 192.849182,159.370850 
	C198.250641,156.258865 204.277252,155.724960 209.615479,158.629929 
	C214.638580,161.363403 219.420090,165.021149 223.332809,169.187912 
	C227.785645,173.929794 225.611450,181.010651 219.354797,184.624710 
	C191.280151,200.841629 163.274460,217.182022 135.021408,233.082535 
	C129.376877,236.259232 127.150497,239.198105 127.388832,246.268127 
	C128.253159,271.907257 127.901253,297.587494 127.999588,323.252197 
	C128.021301,328.918610 128.007675,334.585175 128.011124,340.713348 
z"/>
<path fill="#934A88" opacity="1.000000" stroke="none" 
	d="
M284.014038,399.979370 
	C256.841492,384.232483 230.196899,368.285980 203.098740,353.151642 
	C188.809280,345.170959 190.132889,329.909943 194.690475,319.177948 
	C197.053528,313.613556 203.562180,312.727661 209.713455,316.290619 
	C236.026581,331.531738 262.314209,346.816895 288.618164,362.073822 
	C292.783936,364.490082 296.975403,368.680756 301.174255,368.704895 
	C305.294159,368.728638 309.449707,364.505737 313.570435,362.113525 
	C338.872955,347.424652 364.167969,332.722900 389.469849,318.032959 
	C398.851257,312.586273 404.991791,316.014160 405.173157,326.783661 
	C405.206818,328.781952 405.133820,330.787140 405.273407,332.777710 
	C406.124695,344.917419 400.759399,353.376831 390.356750,359.344574 
	C366.456940,373.055237 342.695038,387.006378 318.876495,400.858734 
	C315.289459,402.944885 311.574005,404.840027 308.143707,407.157654 
	C304.498505,409.620483 300.919525,409.415344 297.334991,407.514160 
	C292.937256,405.181641 288.674652,402.594330 284.014038,399.979370 
z"/>
<path fill="#934A88" opacity="1.000000" stroke="none" 
	d="
M373.926636,154.362427 
	C378.364319,148.475220 381.439636,147.661804 387.264832,150.842255 
	C394.528809,154.808258 402.650879,157.901825 406.265839,166.219009 
	C407.687042,169.488815 408.892517,173.175949 408.913177,176.680588 
	C409.108826,209.843933 408.945648,243.009323 409.105072,276.173065 
	C409.132294,281.841248 405.807526,284.582855 401.671692,286.974579 
	C390.747345,293.291992 379.775970,299.528259 368.813385,305.779388 
	C349.047272,317.050476 329.289490,328.336273 309.497467,339.561737 
	C298.287262,345.919830 282.423126,341.315277 276.092865,329.960541 
	C273.171722,324.720856 274.903687,318.864563 280.664154,315.562195 
	C301.439514,303.652222 322.272736,291.843140 343.080658,279.989838 
	C353.185455,274.233612 363.282562,268.463837 373.065002,262.881714 
	C373.065002,227.897598 373.057251,193.262894 373.095306,158.628250 
	C373.096741,157.332550 373.543671,156.037338 373.926636,154.362427 
z"/>
<path fill="#924A88" opacity="1.000000" stroke="none" 
	d="
M164.894684,387.095428 
	C159.785614,384.259186 155.197861,381.150970 150.209488,378.951385 
	C143.657715,376.062500 141.943527,371.061523 141.956696,364.527252 
	C142.017776,334.202484 141.931702,303.877441 141.896820,273.552490 
	C141.890686,268.220734 142.008194,262.884705 141.835083,257.558228 
	C141.607056,250.541672 144.766052,245.025208 150.307251,241.533096 
	C154.846970,238.672089 160.188812,236.707794 165.439560,235.451004 
	C171.350555,234.036194 176.448502,238.970795 176.715744,245.771515 
	C177.003448,253.093231 176.916504,260.431030 176.931381,267.761902 
	C176.986160,294.754303 177.063293,321.746918 176.987747,348.739044 
	C176.979233,351.778290 177.863815,353.262604 180.644333,354.808289 
	C209.712891,370.967285 238.689896,387.292511 267.600647,403.732788 
	C275.077515,407.984528 275.059113,415.276245 267.901611,419.932037 
	C265.250488,421.656616 262.558502,423.318878 259.872131,424.988617 
	C251.166962,430.399231 242.224411,430.583649 233.368317,425.635712 
	C210.609406,412.920288 187.941818,400.041351 164.894684,387.095428 
z"/>
</svg>